<svg xmlns="http://www.w3.org/2000/svg" viewBox="0 0 800 600" role="img" aria-label="PC con polvo antes de la limpieza"><defs>
<linearGradient id="bg" x1="0" y1="0" x2="1" y2="1">
<stop offset="0" stop-color="#111726"/><stop offset="1" stop-color="#0b0f1a"/>
</linearGradient>
<linearGradient id="neon" x1="0" y1="0" x2="1" y2="1">
<stop offset="0" stop-color="#2f6bff"/><stop offset="0.5" stop-color="#8b5cf6"/><stop offset="1" stop-color="#22e0a1"/>
</linearGradient>
<filter id="glow" x="-30%" y="-30%" width="160%" height="160%">
<feGaussianBlur stdDeviation="6" result="b"/><feMerge><feMergeNode in="b"/><feMergeNode in="SourceGraphic"/></feMerge>
</filter>
</defs><rect x="0" y="0" width="800" height="600" rx="18" fill="url(#bg)"/><rect x="230" y="90" width="340" height="420" rx="18" fill="#0e1524" stroke="url(#neon)" stroke-width="3"/><rect x="250" y="110" width="300" height="380" rx="10" fill="#0a0f1c"/><rect x="270" y="130" width="180" height="70" rx="8" fill="#16203a" stroke="#2f6bff" stroke-width="2"/><rect x="470" y="130" width="60" height="150" rx="8" fill="#16203a" stroke="#8b5cf6" stroke-width="2"/><circle cx="330" cy="330" r="55" fill="none" stroke="#22e0a1" stroke-width="4"/><circle cx="330" cy="330" r="8" fill="#22e0a1"/><line x1="330" y1="330" x2="380.0" y2="330.0" stroke="#22e0a1" stroke-width="3" opacity="0.5"/><line x1="330" y1="330" x2="361.08049841353323" y2="369.16634548137415" stroke="#22e0a1" stroke-width="3" opacity="0.5"/><line x1="330" y1="330" x2="318.6398952653457" y2="378.69238154390973" stroke="#22e0a1" stroke-width="3" opacity="0.5"/><line x1="330" y1="330" x2="284.79639289914695" y2="351.3689940116915" stroke="#22e0a1" stroke-width="3" opacity="0.5"/><line x1="330" y1="330" x2="285.16207918329263" y2="307.8739778352574" stroke="#22e0a1" stroke-width="3" opacity="0.5"/><line x1="330" y1="330" x2="319.460210028461" y2="281.1234941167452" stroke="#22e0a1" stroke-width="3" opacity="0.5"/><line x1="330" y1="330" x2="361.73464379713175" y2="291.36177562220064" stroke="#22e0a1" stroke-width="3" opacity="0.5"/><circle cx="381" cy="423" r="2.7" fill="#7a6a4a" opacity="0.38"/><circle cx="502" cy="440" r="2.8" fill="#7a6a4a" opacity="0.46"/><circle cx="500" cy="252" r="2.7" fill="#7a6a4a" opacity="0.32"/><circle cx="500" cy="396" r="3.5" fill="#7a6a4a" opacity="0.42"/><circle cx="337" cy="238" r="3.0" fill="#7a6a4a" opacity="0.55"/><circle cx="527" cy="319" r="3.3" fill="#7a6a4a" opacity="0.48"/><circle cx="292" cy="201" r="3.3" fill="#7a6a4a" opacity="0.46"/><circle cx="414" cy="135" r="3.5" fill="#7a6a4a" opacity="0.34"/><circle cx="458" cy="338" r="2.3" fill="#7a6a4a" opacity="0.53"/><circle cx="487" cy="188" r="3.7" fill="#7a6a4a" opacity="0.28"/><circle cx="329" cy="373" r="1.8" fill="#7a6a4a" opacity="0.59"/><circle cx="483" cy="440" r="3.6" fill="#7a6a4a" opacity="0.40"/><circle cx="457" cy="413" r="2.2" fill="#7a6a4a" opacity="0.45"/><circle cx="378" cy="292" r="3.1" fill="#7a6a4a" opacity="0.58"/><circle cx="403" cy="430" r="3.1" fill="#7a6a4a" opacity="0.31"/><circle cx="427" cy="397" r="3.7" fill="#7a6a4a" opacity="0.45"/><circle cx="368" cy="444" r="3.5" fill="#7a6a4a" opacity="0.45"/><circle cx="405" cy="183" r="1.4" fill="#7a6a4a" opacity="0.55"/><circle cx="507" cy="165" r="2.2" fill="#7a6a4a" opacity="0.27"/><circle cx="337" cy="130" r="2.0" fill="#7a6a4a" opacity="0.52"/><circle cx="320" cy="142" r="2.9" fill="#7a6a4a" opacity="0.52"/><circle cx="453" cy="420" r="2.1" fill="#7a6a4a" opacity="0.56"/><circle cx="402" cy="378" r="1.9" fill="#7a6a4a" opacity="0.26"/><circle cx="263" cy="159" r="1.5" fill="#7a6a4a" opacity="0.44"/><circle cx="361" cy="328" r="2.0" fill="#7a6a4a" opacity="0.34"/><circle cx="281" cy="293" r="2.1" fill="#7a6a4a" opacity="0.59"/><circle cx="453" cy="312" r="2.5" fill="#7a6a4a" opacity="0.43"/><circle cx="312" cy="437" r="3.9" fill="#7a6a4a" opacity="0.53"/><circle cx="398" cy="340" r="3.0" fill="#7a6a4a" opacity="0.50"/><circle cx="414" cy="343" r="3.9" fill="#7a6a4a" opacity="0.43"/><circle cx="540" cy="293" r="1.2" fill="#7a6a4a" opacity="0.40"/><circle cx="421" cy="130" r="2.3" fill="#7a6a4a" opacity="0.46"/><circle cx="328" cy="150" r="3.0" fill="#7a6a4a" opacity="0.37"/><circle cx="440" cy="467" r="3.8" fill="#7a6a4a" opacity="0.46"/><circle cx="402" cy="370" r="1.3" fill="#7a6a4a" opacity="0.27"/><circle cx="270" cy="309" r="1.9" fill="#7a6a4a" opacity="0.41"/><circle cx="423" cy="210" r="2.2" fill="#7a6a4a" opacity="0.36"/><circle cx="449" cy="424" r="1.9" fill="#7a6a4a" opacity="0.53"/><circle cx="313" cy="133" r="3.9" fill="#7a6a4a" opacity="0.49"/><circle cx="327" cy="278" r="2.6" fill="#7a6a4a" opacity="0.48"/><circle cx="397" cy="242" r="2.1" fill="#7a6a4a" opacity="0.49"/><circle cx="309" cy="172" r="2.9" fill="#7a6a4a" opacity="0.58"/><circle cx="374" cy="344" r="3.5" fill="#7a6a4a" opacity="0.59"/><circle cx="300" cy="292" r="3.3" fill="#7a6a4a" opacity="0.33"/><circle cx="490" cy="258" r="1.8" fill="#7a6a4a" opacity="0.29"/><circle cx="531" cy="217" r="2.1" fill="#7a6a4a" opacity="0.54"/><circle cx="353" cy="262" r="2.2" fill="#7a6a4a" opacity="0.54"/><circle cx="303" cy="437" r="2.2" fill="#7a6a4a" opacity="0.30"/><circle cx="409" cy="385" r="3.4" fill="#7a6a4a" opacity="0.34"/><circle cx="437" cy="444" r="2.4" fill="#7a6a4a" opacity="0.40"/><circle cx="469" cy="138" r="3.8" fill="#7a6a4a" opacity="0.30"/><circle cx="262" cy="364" r="3.8" fill="#7a6a4a" opacity="0.56"/><circle cx="521" cy="342" r="2.8" fill="#7a6a4a" opacity="0.60"/><circle cx="373" cy="136" r="3.3" fill="#7a6a4a" opacity="0.54"/><circle cx="525" cy="267" r="2.7" fill="#7a6a4a" opacity="0.56"/><circle cx="294" cy="421" r="3.9" fill="#7a6a4a" opacity="0.29"/><circle cx="385" cy="143" r="1.3" fill="#7a6a4a" opacity="0.53"/><circle cx="522" cy="221" r="3.7" fill="#7a6a4a" opacity="0.56"/><circle cx="285" cy="126" r="2.5" fill="#7a6a4a" opacity="0.29"/><circle cx="517" cy="273" r="1.9" fill="#7a6a4a" opacity="0.26"/><circle cx="534" cy="331" r="1.3" fill="#7a6a4a" opacity="0.57"/><circle cx="318" cy="294" r="1.6" fill="#7a6a4a" opacity="0.59"/><circle cx="536" cy="364" r="3.5" fill="#7a6a4a" opacity="0.27"/><circle cx="373" cy="221" r="1.5" fill="#7a6a4a" opacity="0.56"/><circle cx="321" cy="207" r="1.9" fill="#7a6a4a" opacity="0.35"/><circle cx="325" cy="123" r="2.6" fill="#7a6a4a" opacity="0.45"/><circle cx="464" cy="145" r="3.3" fill="#7a6a4a" opacity="0.34"/><circle cx="529" cy="386" r="2.4" fill="#7a6a4a" opacity="0.42"/><circle cx="260" cy="148" r="3.4" fill="#7a6a4a" opacity="0.27"/><circle cx="285" cy="155" r="2.6" fill="#7a6a4a" opacity="0.26"/><circle cx="304" cy="383" r="2.6" fill="#7a6a4a" opacity="0.36"/><circle cx="421" cy="156" r="2.2" fill="#7a6a4a" opacity="0.48"/><circle cx="415" cy="304" r="1.9" fill="#7a6a4a" opacity="0.60"/><circle cx="479" cy="183" r="1.6" fill="#7a6a4a" opacity="0.25"/><circle cx="454" cy="160" r="2.8" fill="#7a6a4a" opacity="0.27"/><circle cx="495" cy="429" r="3.0" fill="#7a6a4a" opacity="0.44"/><circle cx="282" cy="438" r="3.7" fill="#7a6a4a" opacity="0.27"/><circle cx="514" cy="479" r="2.1" fill="#7a6a4a" opacity="0.58"/><circle cx="474" cy="355" r="1.3" fill="#7a6a4a" opacity="0.33"/><circle cx="398" cy="475" r="2.9" fill="#7a6a4a" opacity="0.53"/><circle cx="374" cy="338" r="1.6" fill="#7a6a4a" opacity="0.26"/><circle cx="426" cy="311" r="3.9" fill="#7a6a4a" opacity="0.45"/><circle cx="394" cy="182" r="2.5" fill="#7a6a4a" opacity="0.29"/><circle cx="531" cy="312" r="3.1" fill="#7a6a4a" opacity="0.51"/><circle cx="532" cy="172" r="3.5" fill="#7a6a4a" opacity="0.50"/><circle cx="502" cy="193" r="1.9" fill="#7a6a4a" opacity="0.39"/><circle cx="529" cy="167" r="2.8" fill="#7a6a4a" opacity="0.48"/><circle cx="452" cy="211" r="3.5" fill="#7a6a4a" opacity="0.37"/><circle cx="322" cy="133" r="3.6" fill="#7a6a4a" opacity="0.49"/><circle cx="405" cy="416" r="2.0" fill="#7a6a4a" opacity="0.28"/><circle cx="521" cy="390" r="3.2" fill="#7a6a4a" opacity="0.29"/><circle cx="311" cy="403" r="1.4" fill="#7a6a4a" opacity="0.36"/><circle cx="352" cy="159" r="1.9" fill="#7a6a4a" opacity="0.31"/><circle cx="387" cy="352" r="2.9" fill="#7a6a4a" opacity="0.51"/><circle cx="461" cy="249" r="2.2" fill="#7a6a4a" opacity="0.39"/><circle cx="439" cy="404" r="2.4" fill="#7a6a4a" opacity="0.28"/><circle cx="516" cy="240" r="3.9" fill="#7a6a4a" opacity="0.39"/><circle cx="342" cy="332" r="3.1" fill="#7a6a4a" opacity="0.51"/><circle cx="524" cy="471" r="2.6" fill="#7a6a4a" opacity="0.48"/><circle cx="336" cy="203" r="1.5" fill="#7a6a4a" opacity="0.51"/><circle cx="524" cy="346" r="2.8" fill="#7a6a4a" opacity="0.55"/><circle cx="329" cy="256" r="3.3" fill="#7a6a4a" opacity="0.30"/><circle cx="523" cy="281" r="3.8" fill="#7a6a4a" opacity="0.55"/><circle cx="535" cy="271" r="3.1" fill="#7a6a4a" opacity="0.55"/><circle cx="396" cy="231" r="2.1" fill="#7a6a4a" opacity="0.34"/><circle cx="455" cy="222" r="1.7" fill="#7a6a4a" opacity="0.38"/><circle cx="424" cy="367" r="3.4" fill="#7a6a4a" opacity="0.30"/><circle cx="505" cy="479" r="2.9" fill="#7a6a4a" opacity="0.41"/><circle cx="274" cy="366" r="4.0" fill="#7a6a4a" opacity="0.28"/><circle cx="464" cy="143" r="2.5" fill="#7a6a4a" opacity="0.33"/><circle cx="380" cy="451" r="3.2" fill="#7a6a4a" opacity="0.49"/><circle cx="371" cy="250" r="1.9" fill="#7a6a4a" opacity="0.32"/><circle cx="392" cy="190" r="1.7" fill="#7a6a4a" opacity="0.50"/><circle cx="278" cy="250" r="1.7" fill="#7a6a4a" opacity="0.27"/><circle cx="353" cy="336" r="1.5" fill="#7a6a4a" opacity="0.53"/><circle cx="320" cy="167" r="1.9" fill="#7a6a4a" opacity="0.57"/><circle cx="278" cy="302" r="2.5" fill="#7a6a4a" opacity="0.51"/><circle cx="432" cy="123" r="1.3" fill="#7a6a4a" opacity="0.37"/><circle cx="454" cy="368" r="1.4" fill="#7a6a4a" opacity="0.48"/><circle cx="510" cy="320" r="1.6" fill="#7a6a4a" opacity="0.36"/><rect x="250" y="110" width="300" height="380" rx="10" fill="#5a4a2a" opacity="0.12"/><rect x="40" y="40" width="150" height="46" rx="23" fill="#0a0f1c" stroke="#e0563a" stroke-width="2"/><text x="115" y="70" font-family="Space Grotesk, Arial" font-size="22" font-weight="700" fill="#e0563a" text-anchor="middle">ANTES</text></svg>