<svg xmlns="http://www.w3.org/2000/svg" viewBox="0 0 800 600" role="img" aria-label="Placa de video">
<defs>
<linearGradient id="bg" x1="0" y1="0" x2="1" y2="1">
<stop offset="0" stop-color="#111726"/><stop offset="1" stop-color="#0b0f1a"/>
</linearGradient>
<linearGradient id="neon" x1="0" y1="0" x2="1" y2="1">
<stop offset="0" stop-color="#2f6bff"/><stop offset="0.5" stop-color="#8b5cf6"/><stop offset="1" stop-color="#22e0a1"/>
</linearGradient>
<filter id="glow" x="-30%" y="-30%" width="160%" height="160%">
<feGaussianBlur stdDeviation="6" result="b"/><feMerge><feMergeNode in="b"/><feMergeNode in="SourceGraphic"/></feMerge>
</filter>
</defs>
<rect width="800" height="600" rx="18" fill="url(#bg)"/>

<g opacity="0.10">
<line x1="0" y1="150" x2="800" y2="150" stroke="#2f6bff" stroke-width="1"/>
<line x1="0" y1="300" x2="800" y2="300" stroke="#8b5cf6" stroke-width="1"/>
<line x1="0" y1="450" x2="800" y2="450" stroke="#22e0a1" stroke-width="1"/>
</g>
<ellipse cx="400" cy="470" rx="260" ry="34" fill="#2f6bff" opacity="0.18" filter="url(#glow)"/>
<g transform="translate(160,210)">
<rect x="0" y="0" width="480" height="180" rx="14" fill="#0e1524" stroke="url(#neon)" stroke-width="2"/>
<circle cx="130" cy="90" r="55" fill="none" stroke="#2f6bff" stroke-width="4"/>
<circle cx="330" cy="90" r="55" fill="none" stroke="#8b5cf6" stroke-width="4"/>
<line x1="180.0" y1="90.0" x2="130" y2="90" stroke="#22e0a1" stroke-width="3" opacity="0.6"/><line x1="168.24210936422443" y1="122.21088436188455" x2="130" y2="90" stroke="#22e0a1" stroke-width="3" opacity="0.6"/><line x1="138.49835714501205" y1="139.272486499423" x2="130" y2="90" stroke="#22e0a1" stroke-width="3" opacity="0.6"/><line x1="104.75769477000715" y1="133.1604683324437" x2="130" y2="90" stroke="#22e0a1" stroke-width="3" opacity="0.6"/><line x1="82.8888829665671" y1="106.74940750779525" x2="130" y2="90" stroke="#22e0a1" stroke-width="3" opacity="0.6"/><line x1="83.17716563546018" y1="72.46083861551901" x2="130" y2="90" stroke="#22e0a1" stroke-width="3" opacity="0.6"/><line x1="105.486958932965" y1="46.42121137932061" x2="130" y2="90" stroke="#22e0a1" stroke-width="3" opacity="0.6"/><line x1="139.32561847112873" y1="40.87736936878337" x2="130" y2="90" stroke="#22e0a1" stroke-width="3" opacity="0.6"/><line x1="168.7782939255125" y1="58.43666810638392" x2="130" y2="90" stroke="#22e0a1" stroke-width="3" opacity="0.6"/><line x1="380.0" y1="90.0" x2="330" y2="90" stroke="#22e0a1" stroke-width="3" opacity="0.6"/><line x1="368.2421093642244" y1="122.21088436188455" x2="330" y2="90" stroke="#22e0a1" stroke-width="3" opacity="0.6"/><line x1="338.49835714501205" y1="139.272486499423" x2="330" y2="90" stroke="#22e0a1" stroke-width="3" opacity="0.6"/><line x1="304.75769477000716" y1="133.1604683324437" x2="330" y2="90" stroke="#22e0a1" stroke-width="3" opacity="0.6"/><line x1="282.8888829665671" y1="106.74940750779525" x2="330" y2="90" stroke="#22e0a1" stroke-width="3" opacity="0.6"/><line x1="283.1771656354602" y1="72.46083861551901" x2="330" y2="90" stroke="#22e0a1" stroke-width="3" opacity="0.6"/><line x1="305.48695893296497" y1="46.42121137932061" x2="330" y2="90" stroke="#22e0a1" stroke-width="3" opacity="0.6"/><line x1="339.32561847112873" y1="40.87736936878337" x2="330" y2="90" stroke="#22e0a1" stroke-width="3" opacity="0.6"/><line x1="368.77829392551246" y1="58.43666810638392" x2="330" y2="90" stroke="#22e0a1" stroke-width="3" opacity="0.6"/><rect x="0" y="150" width="480" height="30" fill="#0a0f1c"/><rect x="20" y="180" width="14" height="24" fill="#2f6bff" opacity="0.7"/><rect x="46" y="180" width="14" height="24" fill="#2f6bff" opacity="0.7"/><rect x="72" y="180" width="14" height="24" fill="#2f6bff" opacity="0.7"/><rect x="98" y="180" width="14" height="24" fill="#2f6bff" opacity="0.7"/><rect x="124" y="180" width="14" height="24" fill="#2f6bff" opacity="0.7"/><rect x="150" y="180" width="14" height="24" fill="#2f6bff" opacity="0.7"/><rect x="176" y="180" width="14" height="24" fill="#2f6bff" opacity="0.7"/><rect x="202" y="180" width="14" height="24" fill="#2f6bff" opacity="0.7"/><rect x="228" y="180" width="14" height="24" fill="#2f6bff" opacity="0.7"/><rect x="254" y="180" width="14" height="24" fill="#2f6bff" opacity="0.7"/><rect x="280" y="180" width="14" height="24" fill="#2f6bff" opacity="0.7"/><rect x="306" y="180" width="14" height="24" fill="#2f6bff" opacity="0.7"/><rect x="332" y="180" width="14" height="24" fill="#2f6bff" opacity="0.7"/><rect x="358" y="180" width="14" height="24" fill="#2f6bff" opacity="0.7"/><rect x="384" y="180" width="14" height="24" fill="#2f6bff" opacity="0.7"/><rect x="410" y="180" width="14" height="24" fill="#2f6bff" opacity="0.7"/></g>

</svg>